<?xml version="1.0" encoding="UTF-8" standalone="no"?>
<svg
   xmlns:dc="http://purl.org/dc/elements/1.1/"
   xmlns:cc="http://creativecommons.org/ns#"
   xmlns:rdf="http://www.w3.org/1999/02/22-rdf-syntax-ns#"
   xmlns:svg="http://www.w3.org/2000/svg"
   xmlns="http://www.w3.org/2000/svg"
   xmlns:sodipodi="http://sodipodi.sourceforge.net/DTD/sodipodi-0.dtd"
   xmlns:inkscape="http://www.inkscape.org/namespaces/inkscape"
   width="276.16064"
   height="236.87032"
   viewBox="0 0 276.16065 236.8703"
   version="1.1"
   id="svg28"
   sodipodi:docname="img.svg"
   inkscape:version="1.0.2 (e86c870879, 2021-01-15)">
  <metadata
     id="metadata34">
    <rdf:RDF>
      <cc:Work
         rdf:about="">
        <dc:format>image/svg+xml</dc:format>
        <dc:type
           rdf:resource="http://purl.org/dc/dcmitype/StillImage" />
        <dc:title></dc:title>
      </cc:Work>
    </rdf:RDF>
  </metadata>
  <defs
     id="defs32" />
  <sodipodi:namedview
     pagecolor="#ffffff"
     bordercolor="#666666"
     borderopacity="1"
     objecttolerance="10"
     gridtolerance="10"
     guidetolerance="10"
     inkscape:pageopacity="0"
     inkscape:pageshadow="2"
     inkscape:window-width="1920"
     inkscape:window-height="1026"
     id="namedview30"
     showgrid="false"
     fit-margin-top="0"
     fit-margin-left="0"
     fit-margin-right="0"
     fit-margin-bottom="0"
     inkscape:zoom="1.9149508"
     inkscape:cx="251.86662"
     inkscape:cy="177.66563"
     inkscape:window-x="0"
     inkscape:window-y="0"
     inkscape:window-maximized="1"
     inkscape:current-layer="svg28"
     inkscape:document-rotation="0" />
  <g
     id="Grupo_781"
     data-name="Grupo 781"
     transform="translate(103.87466,15.489307)">
    <path
       id="Trazado_1548"
       data-name="Trazado 1548"
       d="m 190.284,37.948 v 13.123 a 22.042,22.042 0 0 0 16.781,21.405 l 20.883,5.133 V 26.3 l -17.364,-4.268 a 16.388,16.388 0 0 0 -20.3,15.915 z"
       transform="translate(-190.284,-21.552)"
       inkscape:connector-curvature="0"
       style="fill:#edeeef" />
    <path
       id="Trazado_1549"
       data-name="Trazado 1549"
       d="m 190.284,63.126 a 22.042,22.042 0 0 0 16.781,21.405 l 20.883,5.133"
       transform="translate(-190.284,-33.607)"
       inkscape:connector-curvature="0"
       style="fill:none;stroke:#000000;stroke-width:1.5;stroke-linecap:round;stroke-linejoin:round" />
    <circle
       id="Elipse_145"
       data-name="Elipse 145"
       cx="1.007"
       cy="1.007"
       r="1.007"
       transform="translate(20.269,24.901)" />
    <circle
       id="Elipse_146"
       data-name="Elipse 146"
       cx="1.007"
       cy="1.007"
       r="1.007"
       transform="translate(4.801,24.901)" />
    <path
       id="Trazado_1550"
       data-name="Trazado 1550"
       d="m 201.68,60.164 v -15.52 h -7.775"
       transform="translate(-191.334,-28.248)"
       inkscape:connector-curvature="0"
       style="fill:none;stroke:#000000;stroke-width:1.5;stroke-linecap:round;stroke-linejoin:round" />
    <line
       id="Línea_82"
       data-name="Línea 82"
       x1="7.7750001"
       transform="translate(15.398,16.396)"
       y1="0"
       x2="0"
       y2="0"
       style="fill:none;stroke:#000000;stroke-width:1.5;stroke-linecap:round;stroke-linejoin:round" />
    <g
       id="Grupo_780"
       data-name="Grupo 780"
       transform="translate(35.183,21.708)">
      <path
         id="Trazado_1551"
         data-name="Trazado 1551"
         d="m 239.835,54.766 v 5.389 a 5.264,5.264 0 0 0 5.264,-5.264 c 0,-0.161 -0.008,-0.321 -0.022,-0.479 -0.295,-3.269 -5.242,-2.929 -5.242,0.354 z"
         transform="translate(-239.835,-52.125)"
         inkscape:connector-curvature="0"
         style="fill:#edeeef" />
      <path
         id="Trazado_1552"
         data-name="Trazado 1552"
         d="M 239.835,61.284 A 5.264,5.264 0 0 0 245.1,56.02"
         transform="translate(-239.835,-53.255)"
         inkscape:connector-curvature="0"
         style="fill:none;stroke:#000000;stroke-width:1.5;stroke-linecap:round;stroke-linejoin:round" />
    </g>
    <path
       id="Trazado_1553"
       data-name="Trazado 1553"
       d="m 210.842,70.077 a 3.486,3.486 0 0 1 4.929,0"
       transform="translate(-196.245,-32.327)"
       inkscape:connector-curvature="0"
       style="fill:none;stroke:#172328;stroke-width:1.5;stroke-linecap:round;stroke-linejoin:round" />
    <line
       id="Línea_83"
       data-name="Línea 83"
       x2="3.4000001"
       y2="0.83600003"
       transform="translate(10.346,31.928)"
       x1="0"
       y1="0"
       style="fill:none;stroke:#000000;stroke-width:1.5;stroke-linecap:round;stroke-linejoin:round" />
  </g>
  <path
     id="Trazado_1554"
     data-name="Trazado 1554"
     d="m 103.07666,29.975307 c 0,0 9.585,6.154 27.928,-6.863 0,0 -0.474,14.132 7.337,16.533"
     inkscape:connector-curvature="0"
     style="fill:none;stroke:#000000;stroke-width:1.5;stroke-linecap:round;stroke-linejoin:round" />
  <path
     id="Trazado_1555"
     data-name="Trazado 1555"
     d="m 103.87466,34.472307 c 0,0 -5.650004,-2.959 -5.768004,-9.468 0,0 16.449004,-27.5730003 38.579004,-12.662 0,0 12.543,3.077 13.491,18.342 0.948,15.265 -8.638,23.313 -8.638,23.313"
     inkscape:connector-curvature="0"
     style="fill:none;stroke:#000000;stroke-width:1.5;stroke-linecap:round;stroke-linejoin:round" />
  <path
     id="Trazado_1556"
     data-name="Trazado 1556"
     d="m 142.72066,11.514307 a 13.612,13.612 0 0 1 7.521,7.337"
     inkscape:connector-curvature="0"
     style="fill:none;stroke:#00819f;stroke-width:1.5;stroke-linecap:round;stroke-linejoin:round" />
  <path
     id="Trazado_1557"
     data-name="Trazado 1557"
     d="m 146.48066,9.3843067 c 0,0 5.943,-13.727 18.368,-6.627 12.425,7.1 10.888,27.2180003 10.888,27.2180003 l -18.224,4.142 c 0,0 -0.107,-20.841 -6.272,-18.628"
     inkscape:connector-curvature="0"
     style="fill:none;stroke:#000000;stroke-width:1.5;stroke-linecap:round;stroke-linejoin:round" />
  <path
     id="Trazado_1558"
     data-name="Trazado 1558"
     d="m 89.175656,125.98931 v 82.245 l 116.510004,28.636 v -91.6 a 70.553,70.553 0 0 0 -53.714,-68.514003 v 0 A 50.7,50.7 0 0 0 89.171656,125.98731 Z"
     inkscape:connector-curvature="0"
     style="fill:#edeeef" />
  <path
     id="Trazado_1559"
     data-name="Trazado 1559"
     d="m 179.18966,90.163307 c 0,0 34.684,20.325003 57.4,64.346003 0,0 -12.57,-47.733 -4.524,-60.987003 8.046,-13.254 8.994,-3.359 8.994,-3.359 0,0 18.934,-14.154 22.247,-7.054 3.313,7.1 -8.993,18.934003 -8.993,18.934003 0,0 41.534,68.027 8.047,93.562 -41.182,31.4 -86.568,-33.92 -86.568,-33.92"
     inkscape:connector-curvature="0"
     style="fill:none;stroke:#000000;stroke-width:1.5;stroke-linecap:round;stroke-linejoin:round" />
  <path
     id="Trazado_1560"
     data-name="Trazado 1560"
     d="m 121.41494,77.667421 c 0,0 -33.099293,21.903243 -63.502699,64.401209 0,0 -10.542054,-58.799642 -24.409528,-64.325507 -13.867474,-5.525865 -6.749352,4.434208 -6.749352,4.434208 0,0 -18.046083,-17.477425 -24.8529171,-10.806047 -6.8068342,6.671377 18.8058151,28.368109 18.8058151,28.368109 0,0 -18.2988697,57.407087 -3.288363,83.602177 11.554982,20.1603 28.005726,20.92056 44.763441,11.65451"
     inkscape:connector-curvature="0"
     style="fill:none;stroke:#000000;stroke-width:1.5;stroke-linecap:round;stroke-linejoin:round" />
</svg>
