<svg xmlns="http://www.w3.org/2000/svg" xmlns:xlink="http://www.w3.org/1999/xlink" width="164.969" height="143.419" viewBox="0 0 164.969 143.419">
  <defs>
    <clipPath id="clip-path">
      <circle id="Elipse_195" data-name="Elipse 195" cx="70.518" cy="70.518" r="70.518" fill="none"/>
    </clipPath>
  </defs>
  <g id="Grupo_2122" data-name="Grupo 2122" transform="translate(-913.763 -319.581)">
    <g id="Grupo_2121" data-name="Grupo 2121" transform="matrix(0.985, -0.174, 0.174, 0.985, 941.672, 328.573)">
      <path id="Trazado_1121" data-name="Trazado 1121" d="M8.539,9.076,0,0" transform="translate(17.516 17.615)" fill="none" stroke="#172328" stroke-linecap="round" stroke-width="1.75"/>
      <path id="Trazado_1122" data-name="Trazado 1122" d="M0,12.946V0" transform="translate(46.114 0.166) rotate(-13)" fill="none" stroke="#172328" stroke-linecap="round" stroke-width="1.75"/>
      <path id="Trazado_1123" data-name="Trazado 1123" d="M0,8.655,8.655,0" transform="translate(70.784 8.55) rotate(-11)" fill="none" stroke="#172328" stroke-linecap="round" stroke-width="1.75"/>
    </g>
    <g id="Grupo_2124" data-name="Grupo 2124" transform="translate(20.455 -2.287)">
      <g id="Grupo_2123" data-name="Grupo 2123" transform="translate(892.771 354.103)">
        <g id="Grupo_1865" data-name="Grupo 1865" transform="translate(1.216 29.852)">
          <path id="Trazado_1670" data-name="Trazado 1670" d="M449.646,327.194l-58.677-.434a2.731,2.731,0,0,1-2.655-2.189l-7.065-34.9a2.73,2.73,0,0,1,2.7-3.272l58.678.434a2.73,2.73,0,0,1,2.654,2.189l7.065,34.9A2.73,2.73,0,0,1,449.646,327.194Z" transform="translate(-381.193 -286.399)" fill="#f0717a"/>
        </g>
        <path id="Trazado_1828" data-name="Trazado 1828" d="M1.838,29.136c2.513-.473,55.938-.621,62.336,0,1.98,1.95,0,4.377,0,4.377s-25.69,17.8-26.792,17.75S4.112,33.7,2.532,32.55-.675,29.608,1.838,29.136Z" fill="#172328"/>
      </g>
    </g>
    <g id="Grupo_2125" data-name="Grupo 2125" transform="translate(587.775 126.3)">
      <g id="Grupo_1941" data-name="Grupo 1941" transform="translate(349.92 195.663)" clip-path="url(#clip-path)">
        <g id="Grupo_1940" data-name="Grupo 1940" transform="translate(2.586 15.733)">
          <path id="Trazado_1729" data-name="Trazado 1729" d="M397.851,338.416v70.9L498.285,434V355.038a60.819,60.819,0,0,0-46.3-59.06h0a43.7,43.7,0,0,0-54.132,42.439Z" transform="translate(-373.262 -228.734)" fill="#cbe9ff"/>
          <path id="Trazado_1733" data-name="Trazado 1733" d="M495.6,314.307s118.77,115.475-9.15,188.309l-13.68-21.422,27.757-71.815-26.693-37.131" transform="translate(-390.863 -233.342)" fill="none" stroke="#000" stroke-miterlimit="10" stroke-width="1.5"/>
          <line id="Línea_277" data-name="Línea 277" x1="26.577" y1="41.62" transform="translate(69.013 227.654)" fill="none" stroke="#000" stroke-miterlimit="10" stroke-width="1.5"/>
          <path id="Trazado_1734" data-name="Trazado 1734" d="M398.09,319.257s-58.29,90.4-18.452,158.983" transform="translate(-365.711 -234.505)" fill="none" stroke="#000" stroke-miterlimit="10" stroke-width="1.5"/>
          <g id="Grupo_2126" data-name="Grupo 2126" transform="translate(33.147)">
            <g id="Grupo_705" data-name="Grupo 705" transform="translate(0 0)">
              <path id="Trazado_1497" data-name="Trazado 1497" d="M378.519,247.305l-12.178-3.951s.652-46.063,39.793-39.1c0,0,24.789,1,27.4,27.743s2.2,28.459,2.2,28.459l-21.615-5.1" transform="translate(-366.341 -203.534)" fill="none" stroke="#172328" stroke-linecap="round" stroke-linejoin="round" stroke-width="1.5"/>
              <g id="Grupo_708" data-name="Grupo 708" transform="translate(13.991 13.759)">
                <path id="Trazado_1488" data-name="Trazado 1488" d="M382.5,231.472v12.057a20.252,20.252,0,0,0,15.418,19.666L417.1,267.91V220.77L401.15,216.85A15.057,15.057,0,0,0,382.5,231.472Z" transform="translate(-382.499 -216.407)" fill="#edeeef"/>
                <path id="Trazado_1489" data-name="Trazado 1489" d="M382.5,249.667a20.252,20.252,0,0,0,15.418,19.666l19.186,4.716" transform="translate(-382.499 -222.546)" fill="none" stroke="#000" stroke-miterlimit="10" stroke-width="1.5"/>
                <circle id="Elipse_171" data-name="Elipse 171" cx="0.925" cy="0.925" r="0.925" transform="translate(20.253 21.247)"/>
                <circle id="Elipse_172" data-name="Elipse 172" cx="0.925" cy="0.925" r="0.925" transform="translate(6.042 21.247)"/>
                <path id="Trazado_1490" data-name="Trazado 1490" d="M392.539,249.14V234.881H385.4" transform="translate(-380.587 -219.817)" fill="none" stroke="#000" stroke-miterlimit="10" stroke-width="1.5"/>
                <line id="Línea_244" data-name="Línea 244" x1="7.143" transform="translate(16.593 15.064)" fill="none" stroke="#000" stroke-miterlimit="10" stroke-width="1.5"/>
                <line id="Línea_245" data-name="Línea 245" transform="translate(1.25 12.729)" fill="none" stroke="#000" stroke-miterlimit="10" stroke-width="1.5"/>
                <g id="Grupo_703" data-name="Grupo 703" transform="translate(32.325 19.944)">
                  <path id="Trazado_1491" data-name="Trazado 1491" d="M422.14,243.291v4.952a4.837,4.837,0,0,0,4.836-4.836c0-.148-.007-.3-.02-.44C426.685,239.963,422.14,240.276,422.14,243.291Z" transform="translate(-422.14 -240.866)" fill="#edeeef"/>
                  <path id="Trazado_1492" data-name="Trazado 1492" d="M422.14,248.818a4.837,4.837,0,0,0,4.836-4.836" transform="translate(-422.14 -241.441)" fill="none" stroke="#000" stroke-miterlimit="10" stroke-width="1.5"/>
                </g>
                <path id="Trazado_1493" data-name="Trazado 1493" d="M398.945,255.348a3.2,3.2,0,0,1,4.529,0" transform="translate(-383.088 -220.975)" fill="none" stroke="#172328" stroke-linecap="round" stroke-linejoin="round" stroke-width="1.5"/>
                <line id="Línea_246" data-name="Línea 246" x2="3.124" y2="0.768" transform="translate(11.952 29.334)" fill="none" stroke="#000" stroke-linecap="round" stroke-miterlimit="10" stroke-width="1.5"/>
              </g>
              <path id="Trazado_1498" data-name="Trazado 1498" d="M381.275,228.679l26.963,1.3s1.543,8.836,6.36,9.785" transform="translate(-368.282 -204.913)" fill="none" stroke="#172328" stroke-linecap="round" stroke-linejoin="round" stroke-width="1.5"/>
            </g>
          </g>
        </g>
      </g>
    </g>
  </g>
</svg>
