<svg xmlns="http://www.w3.org/2000/svg" width="197.427" height="142.732" viewBox="0 0 197.427 142.732">
  <g id="Grupo_2108" data-name="Grupo 2108" transform="translate(1222.116 -367.918)">
    <g id="Grupo_713" data-name="Grupo 713" transform="translate(-1222.116 403.168)">
      <path id="Trazado_1514" data-name="Trazado 1514" d="M530.578,375.427l-128.052-.948a5.959,5.959,0,0,1-5.795-4.776l-15.418-76.163a5.959,5.959,0,0,1,5.883-7.14l128.054.948a5.957,5.957,0,0,1,5.793,4.776l15.418,76.163A5.958,5.958,0,0,1,530.578,375.427Z" transform="translate(-381.193 -286.399)" fill="#f3faff"/>
      <rect id="Rect치ngulo_388" data-name="Rect치ngulo 388" width="121.108" height="7.649" transform="translate(17.26 88.142) rotate(0.424)" fill="#4d4d4d"/>
      <rect id="Rect치ngulo_389" data-name="Rect치ngulo 389" width="63.104" height="7.649" transform="translate(134.325 89.039) rotate(0.424)" fill="#4d4d4d"/>
      <path id="Trazado_1516" data-name="Trazado 1516" d="M479.053,289.26q-32.262-.614-64.518.161a.492.492,0,0,0,.039.983q32.259-.779,64.521-.163C479.728,290.255,479.684,289.272,479.053,289.26Z" transform="translate(-403.441 -283.896)" fill="#77a0d4"/>
      <path id="Trazado_1663" data-name="Trazado 1663" d="M450.427,290.112c-.112-.619-1.048-.315-.936.3q7.032,38.9,13.6,77.886c.1.615,1.087.584.981-.039Q457.485,329.145,450.427,290.112Z" transform="translate(-438.911 -284.149)" fill="#77a0d4"/>
      <path id="Trazado_1519" data-name="Trazado 1519" d="M515.745,334.61l-55.475-.437c-.633-.006-.592.977.041.981q27.738.218,55.475.438C516.419,335.6,516.376,334.615,515.745,334.61Z" transform="translate(-433.975 -242.251)" fill="#77a0d4"/>
      <path id="Trazado_1664" data-name="Trazado 1664" d="M515.745,334.61l-55.475-.437c-.633-.006-.592.977.041.981q27.738.218,55.475.438C516.419,335.6,516.376,334.615,515.745,334.61Z" transform="translate(-367.323 -250.33)" fill="#77a0d4"/>
      <path id="Trazado_1665" data-name="Trazado 1665" d="M55.93.437.455,0C-.178-.006-.137.977.5.981q27.738.218,55.475.438C56.6,1.424,56.561.442,55.93.437Z" transform="translate(139.245 29.456) rotate(79)" fill="#77a0d4"/>
      <g id="Grupo_1866" data-name="Grupo 1866" transform="translate(48.5 0.311)">
        <g id="Grupo_1865" data-name="Grupo 1865" transform="translate(1.07 26.259)">
          <path id="Trazado_1670" data-name="Trazado 1670" d="M441.408,322.285l-51.616-.382a2.4,2.4,0,0,1-2.336-1.925l-6.215-30.7a2.4,2.4,0,0,1,2.372-2.878l51.617.382a2.4,2.4,0,0,1,2.335,1.925l6.215,30.7A2.4,2.4,0,0,1,441.408,322.285Z" transform="translate(-381.193 -286.399)" fill="#77a0d4"/>
        </g>
        <path id="Trazado_1671" data-name="Trazado 1671" d="M34.568,29.438,2.336,33.172A2.4,2.4,0,0,1,0,31.247C22.681,14.346,34.134,6.592,45.654,0a2.4,2.4,0,0,1,2.335,1.925L38.031,27.014A3.09,3.09,0,0,1,34.568,29.438Z" transform="matrix(0.819, 0.574, -0.574, 0.819, 19.027, 0)" fill="#201728"/>
      </g>
    </g>
    <g id="Grupo_2106" data-name="Grupo 2106" transform="matrix(1, 0.017, -0.017, 1, -1155.643, 393.122)">
      <path id="search-light" d="M114.733,108.664,85.627,79.558a2.678,2.678,0,0,0-1.918-.79H81.385a46.459,46.459,0,1,0-2.617,2.64v2.3a2.774,2.774,0,0,0,.79,1.918l29.106,29.106a2.71,2.71,0,0,0,3.836,0l2.234-2.234A2.71,2.71,0,0,0,114.733,108.664Zm-67.8-22.022A39.711,39.711,0,1,1,86.642,46.931,39.683,39.683,0,0,1,46.931,86.642Z" transform="translate(0 0)" fill="#172328"/>
      <circle id="Elipse_222" data-name="Elipse 222" cx="39.912" cy="39.912" r="39.912" transform="translate(6.918 6.918)" fill="#f3faff" opacity="0.5"/>
    </g>
    <g id="Grupo_2118" data-name="Grupo 2118" transform="translate(-1099.642 344.877) rotate(41)">
      <path id="Trazado_1121" data-name="Trazado 1121" d="M8.539,9.076,0,0" transform="translate(17.516 17.615)" fill="none" stroke="#f2bc07" stroke-linecap="round" stroke-width="1.75"/>
      <path id="Trazado_1122" data-name="Trazado 1122" d="M0,12.946V0" transform="translate(46.114 0.166) rotate(-13)" fill="none" stroke="#f2bc07" stroke-linecap="round" stroke-width="1.75"/>
      <path id="Trazado_1123" data-name="Trazado 1123" d="M0,8.655,8.655,0" transform="translate(70.784 8.55) rotate(-11)" fill="none" stroke="#f2bc07" stroke-linecap="round" stroke-width="1.75"/>
      <path id="Trazado_1124" data-name="Trazado 1124" d="M0,0H12.9" transform="translate(90.807 35.132) rotate(-34)" fill="none" stroke="#f2bc07" stroke-linecap="round" stroke-width="1.75"/>
    </g>
  </g>
</svg>
