<?xml version="1.0" encoding="UTF-8" standalone="no"?>
<svg
   xmlns:dc="http://purl.org/dc/elements/1.1/"
   xmlns:cc="http://creativecommons.org/ns#"
   xmlns:rdf="http://www.w3.org/1999/02/22-rdf-syntax-ns#"
   xmlns:svg="http://www.w3.org/2000/svg"
   xmlns="http://www.w3.org/2000/svg"
   xmlns:sodipodi="http://sodipodi.sourceforge.net/DTD/sodipodi-0.dtd"
   xmlns:inkscape="http://www.inkscape.org/namespaces/inkscape"
   width="674.82245"
   height="498.48196"
   viewBox="0 0 674.82245 498.48196"
   fill="none"
   version="1.1"
   id="svg60"
   sodipodi:docname="config_1.svg"
   inkscape:version="1.0.2 (e86c870879, 2021-01-15)">
  <metadata
     id="metadata66">
    <rdf:RDF>
      <cc:Work
         rdf:about="">
        <dc:format>image/svg+xml</dc:format>
        <dc:type
           rdf:resource="http://purl.org/dc/dcmitype/StillImage" />
        <dc:title></dc:title>
      </cc:Work>
    </rdf:RDF>
  </metadata>
  <defs
     id="defs64" />
  <sodipodi:namedview
     pagecolor="#ffffff"
     bordercolor="#666666"
     borderopacity="1"
     objecttolerance="10"
     gridtolerance="10"
     guidetolerance="10"
     inkscape:pageopacity="0"
     inkscape:pageshadow="2"
     inkscape:window-width="1920"
     inkscape:window-height="1026"
     id="namedview62"
     showgrid="false"
     fit-margin-top="0"
     fit-margin-left="0"
     fit-margin-right="0"
     fit-margin-bottom="0"
     inkscape:zoom="1.2485119"
     inkscape:cx="354.43171"
     inkscape:cy="230.06244"
     inkscape:window-x="0"
     inkscape:window-y="0"
     inkscape:window-maximized="1"
     inkscape:current-layer="svg60" />
  <path
     fill-rule="evenodd"
     clip-rule="evenodd"
     d="m 664.48971,111.76744 c 30.592,58.795 -13.268,131.451 -46.884,190.302 -29.368,51.412 -74.512,93.425 -129.508,118.495 -48.718,22.209 -103.252,2.449 -155.992,11.653 -70.576,12.317 -143.445,86.858 -203.491,51.083 -58.562298,-34.891 -13.24,-129.309 -34.300998,-192.758 -21.637,-65.185 -116.56223,-115.715 -89.5014998,-180.214 C 32.318412,44.768445 133.78871,53.699445 203.20071,31.015445 c 46.33,-15.141 90.663,-31.41400044 139.188,-31.00800044 48.022,0.402 90.548,17.75200044 135.377,33.30600044 65.566,22.75 155.551,18.544 186.724,78.453995 z"
     fill="#00819f"
     fill-opacity="0.06"
     id="path2" />
  <path
     fill-rule="evenodd"
     clip-rule="evenodd"
     d="m 351.48371,143.91444 c 46.335,21.327 107.545,18.92 136.959,59.209 29.796,40.813 20.778,94.36 7.609,138.811 -12.065,40.723 -44.606,69.465 -77.473,97 -32.028,26.832 -64.666,57.3 -109.265,59.443 -44.059,2.116 -83.097,-28.374 -124.129,-48.229 -43.858,-21.224 -102.364998,-29.691 -123.376298,-71.544 -21.0145,-41.86 18.3893,-82.569 24.0493,-126.309 5.822,-44.99 -20.0443,-99.084 9.505,-132.995 29.920998,-34.336995 86.745998,-39.121995 136.323998,-34.356995 44.566,4.283 78.366,39.900995 119.797,58.970995 z"
     fill="#00819f"
     id="path4" />
  <path
     d="m 324.66371,191.43344 37.256,-23.088 36.917,110.749 77.935,40.198 -11.485,76.293 -9.844,-20.509 c -238.726,-60.708 -130.779,-183.643 -130.779,-183.643 z"
     fill="#f2bc08"
     id="path6" />
  <path
     d="m 385.43971,238.90344 13.397,40.188 30.173,15.562 c 3.461,14.797 5.176,29.949 5.11,45.145 0.011,9.643 -0.66,19.275 -2.009,28.824 -43.839,-13.172 -73.977,-28.657 -94.241,-44.896 3.683,-47.92 23.559,-84.572 47.57,-84.823 z"
     fill="#000000"
     id="path8" />
  <path
     d="m 338.17971,168.03244 64.04,-4.387 11.644,4.742 5.473,279.675 h -59.482 l 6.289,-11.27 z"
     fill="#f2bc08"
     id="path10" />
  <path
     d="m 345.34971,33.533445 v 10.106 c 0,3.799 1.273,7.487 3.616,10.477 2.344,2.99 5.622,5.107 9.311,6.014 l 16.086,3.953 v -39.522 l -13.375,-3.287 c -1.859,-0.457 -3.798,-0.486 -5.669,-0.083 -1.871,0.403 -3.627,1.226 -5.133,2.407 -1.507,1.181 -2.725,2.689 -3.562,4.41 -0.838,1.721 -1.274,3.61 -1.274,5.524 z"
     fill="#edeeef"
     id="path12" />
  <path
     d="m 345.34971,43.641445 c 0,3.798 1.274,7.487 3.617,10.476 2.343,2.989 5.621,5.106 9.31,6.012 l 16.086,3.954"
     stroke="#000000"
     stroke-width="1.5"
     stroke-linecap="round"
     stroke-linejoin="round"
     id="path14" />
  <path
     d="m 361.73971,41.636445 c 0.428,0 0.775,-0.348 0.775,-0.776 0,-0.428 -0.347,-0.776 -0.775,-0.776 -0.429,0 -0.776,0.348 -0.776,0.776 0,0.428 0.347,0.776 0.776,0.776 z"
     fill="#000000"
     id="path16" />
  <path
     d="m 349.82471,41.636445 c 0.428,0 0.776,-0.348 0.776,-0.776 0,-0.428 -0.348,-0.776 -0.776,-0.776 -0.428,0 -0.776,0.348 -0.776,0.776 0,0.428 0.348,0.776 0.776,0.776 z"
     fill="#000000"
     id="path18" />
  <path
     d="m 353.31971,45.487445 v -11.954 h -5.989"
     stroke="#000000"
     stroke-width="1.5"
     stroke-linecap="round"
     stroke-linejoin="round"
     id="path20" />
  <path
     d="m 363.19971,33.533445 h -5.989"
     stroke="#000000"
     stroke-width="1.5"
     stroke-linecap="round"
     stroke-linejoin="round"
     id="path22" />
  <path
     d="m 372.45171,39.658445 v 4.152 c 1.076,0 2.107,-0.428 2.867,-1.188 0.761,-0.761 1.188,-1.792 1.188,-2.867 0,-0.124 -0.006,-0.248 -0.017,-0.371 -0.228,-2.516 -4.038,-2.254 -4.038,0.274 z"
     fill="#edeeef"
     id="path24" />
  <path
     d="m 372.45171,43.812445 c 1.076,0 2.107,-0.427 2.867,-1.188 0.761,-0.76 1.188,-1.791 1.188,-2.867"
     stroke="#000000"
     stroke-width="1.5"
     stroke-linecap="round"
     stroke-linejoin="round"
     id="path26" />
  <path
     d="m 356.59471,49.111445 c 0.503,0.503 1.186,0.786 1.898,0.786 0.712,0 1.395,-0.283 1.898,-0.786"
     stroke="#172328"
     stroke-width="1.5"
     stroke-linecap="round"
     stroke-linejoin="round"
     id="path28" />
  <path
     d="m 353.32071,45.498445 2.619,0.643"
     stroke="#000000"
     stroke-width="1.5"
     stroke-linecap="round"
     stroke-linejoin="round"
     id="path30" />
  <path
     d="m 414.41471,106.02044 v 63.353 l -89.748,22.058 v -70.556 c -0.001,-12.157 4.075,-23.963995 11.576,-33.531995 7.501,-9.569 17.993,-16.345 29.8,-19.247 5.75,-1.413 11.747,-1.501 17.536,-0.255 5.789,1.246 11.219,3.792 15.879,7.445 4.66,3.654 8.428,8.319 11.019,13.644 2.592,5.324 3.938,11.167995 3.938,17.089995 z"
     fill="#ffffff"
     id="path32" />
  <path
     d="m 366.14471,436.79244 -27.965,-268.76"
     stroke="#000000"
     stroke-width="1.5"
     stroke-linecap="round"
     stroke-linejoin="round"
     id="path34" />
  <path
     d="m 344.73671,34.289445 c 0,0 9.738,-3.555 13.757,-10.665 0,0 2.147,13.718 14.363,14.789"
     stroke="#000000"
     stroke-width="1.5"
     stroke-linecap="round"
     stroke-linejoin="round"
     id="path36" />
  <path
     d="m 345.34971,39.755445 c 0,0 -7.724,-8.609 -2.665,-17.226 5.06,-8.617 20.637,-8.932 31.794,-5.195 15.106,5.059 19.111,25.861 -0.116,33.773"
     stroke="#000000"
     stroke-width="1.5"
     stroke-linecap="round"
     stroke-linejoin="round"
     id="path38" />
  <path
     d="m 388.76571,31.018445 c 0.638,2.424 0.638,4.971 0,7.395"
     stroke="#00a3c9"
     stroke-width="1.5"
     stroke-linecap="round"
     stroke-linejoin="round"
     id="path40" />
  <path
     d="m 390.13271,31.018445 c 0,0 3.828,-7.076 10.665,-2.791 6.837,4.285 0.547,16.791 -10.665,9.398"
     stroke="#000000"
     stroke-width="1.5"
     stroke-linecap="round"
     stroke-linejoin="round"
     id="path42" />
  <path
     d="m 396.15371,72.965445 c 0,0 44.153,28.186995 37.966,85.614995 -6.188,57.428 -76.561,38.468 -113.752,-9.663 0,0 -22.956,-7.292 -20.047,-9.48 2.91,-2.188 24.343,-2.188 24.343,-2.188 0,0 -3.358,-6.198 0,-6.198 3.357,0 7.369,5.469 7.369,5.469 l 59.03,13.127 -10.032,-23.701"
     stroke="#000000"
     stroke-width="1.5"
     stroke-linecap="round"
     stroke-linejoin="round"
     id="path44" />
  <path
     d="m 324.66671,137.25044 h -49.881 l -30.354,-64.284995"
     stroke="#f2bc08"
     stroke-width="1.5"
     stroke-linecap="round"
     stroke-linejoin="round"
     id="path46" />
  <path
     d="m 340.47171,82.555445 c 0,0 -25.753,26.800995 -30.132,56.334995"
     stroke="#000000"
     stroke-width="1.5"
     stroke-linecap="round"
     stroke-linejoin="round"
     id="path48" />
  <path
     d="m 325.40771,172.67244 c 0,0 -55.703,27.921 -37.117,-35.423"
     stroke="#000000"
     stroke-width="1.5"
     stroke-linecap="round"
     stroke-linejoin="round"
     id="path50" />
  <path
     d="m 312.52271,129.19244 c 0,0 -4.85,-29.522995 -13.878,-24.086 -9.027,5.438 -15.975,8.89 -14.094,10.217 1.881,1.327 6.661,0.265 6.661,0.265 0,0 -3.452,6.372 2.389,7.965 l -3.636,8.762"
     stroke="#000000"
     stroke-width="1.5"
     stroke-linecap="round"
     stroke-linejoin="round"
     id="path52" />
  <path
     d="m 259.39371,72.453445 5.916,-5.759"
     stroke="#00819f"
     stroke-width="1.5"
     stroke-linecap="round"
     id="path54" />
  <path
     d="m 253.34071,67.347445 v -9.582"
     stroke="#00819f"
     stroke-width="1.5"
     stroke-linecap="round"
     id="path56" />
  <path
     d="m 272.47571,80.966445 -9.62,-0.81"
     stroke="#00819f"
     stroke-width="1.5"
     stroke-linecap="round"
     id="path58" />
</svg>
