<?xml version="1.0" encoding="UTF-8" standalone="no"?>
<svg
   xmlns:dc="http://purl.org/dc/elements/1.1/"
   xmlns:cc="http://creativecommons.org/ns#"
   xmlns:rdf="http://www.w3.org/1999/02/22-rdf-syntax-ns#"
   xmlns:svg="http://www.w3.org/2000/svg"
   xmlns="http://www.w3.org/2000/svg"
   xmlns:sodipodi="http://sodipodi.sourceforge.net/DTD/sodipodi-0.dtd"
   xmlns:inkscape="http://www.inkscape.org/namespaces/inkscape"
   aria-hidden="true"
   focusable="false"
   data-prefix="fal"
   data-icon="info-circle"
   class="svg-inline--fa fa-info-circle fa-w-16"
   role="img"
   viewBox="0 0 496 496"
   version="1.1"
   id="svg4"
   sodipodi:docname="info-circle-light.svg"
   inkscape:version="1.0.2 (e86c870879, 2021-01-15)"
   width="496"
   height="496">
  <metadata
     id="metadata10">
    <rdf:RDF>
      <cc:Work
         rdf:about="">
        <dc:format>image/svg+xml</dc:format>
        <dc:type
           rdf:resource="http://purl.org/dc/dcmitype/StillImage" />
        <dc:title />
      </cc:Work>
    </rdf:RDF>
  </metadata>
  <defs
     id="defs8" />
  <sodipodi:namedview
     pagecolor="#ffffff"
     bordercolor="#666666"
     borderopacity="1"
     objecttolerance="10"
     gridtolerance="10"
     guidetolerance="10"
     inkscape:pageopacity="0"
     inkscape:pageshadow="2"
     inkscape:window-width="1920"
     inkscape:window-height="1026"
     id="namedview6"
     showgrid="false"
     inkscape:zoom="1.6386719"
     inkscape:cx="25.868897"
     inkscape:cy="248"
     inkscape:window-x="0"
     inkscape:window-y="0"
     inkscape:window-maximized="1"
     inkscape:current-layer="svg4"
     inkscape:document-rotation="0"
     fit-margin-top="0"
     fit-margin-left="0"
     fit-margin-right="0"
     fit-margin-bottom="0" />
  <path
     fill="currentColor"
     d="m 248,32 c 118.621,0 216,96.075 216,216 0,119.291 -96.61,216 -216,216 C 128.756,464 32,367.438 32,248 32,128.797 128.602,32 248,32 M 248,0 C 111.043,0 0,111.083 0,248 0,384.997 111.043,496 248,496 384.957,496 496,384.997 496,248 496,111.083 384.957,0 248,0 Z m -36,344 h 12 V 224 h -12 c -6.627,0 -12,-5.373 -12,-12 v -8 c 0,-6.627 5.373,-12 12,-12 h 48 c 6.627,0 12,5.373 12,12 v 140 h 12 c 6.627,0 12,5.373 12,12 v 8 c 0,6.627 -5.373,12 -12,12 h -72 c -6.627,0 -12,-5.373 -12,-12 v -8 c 0,-6.627 5.373,-12 12,-12 z m 36,-240 c -17.673,0 -32,14.327 -32,32 0,17.673 14.327,32 32,32 17.673,0 32,-14.327 32,-32 0,-17.673 -14.327,-32 -32,-32 z"
     id="path2"
     style="fill:#00819f;fill-opacity:1" />
</svg>
