<?xml version="1.0" encoding="UTF-8" standalone="no"?>
<svg
   xmlns:dc="http://purl.org/dc/elements/1.1/"
   xmlns:cc="http://creativecommons.org/ns#"
   xmlns:rdf="http://www.w3.org/1999/02/22-rdf-syntax-ns#"
   xmlns:svg="http://www.w3.org/2000/svg"
   xmlns="http://www.w3.org/2000/svg"
   xmlns:sodipodi="http://sodipodi.sourceforge.net/DTD/sodipodi-0.dtd"
   xmlns:inkscape="http://www.inkscape.org/namespaces/inkscape"
   width="15.868265"
   height="14.614415"
   version="1.1"
   id="svg12"
   sodipodi:docname="logo.svg"
   inkscape:version="1.0.2 (e86c870879, 2021-01-15)">
  <metadata
     id="metadata18">
    <rdf:RDF>
      <cc:Work
         rdf:about="">
        <dc:format>image/svg+xml</dc:format>
        <dc:type
           rdf:resource="http://purl.org/dc/dcmitype/StillImage" />
        <dc:title></dc:title>
      </cc:Work>
    </rdf:RDF>
  </metadata>
  <defs
     id="defs16" />
  <sodipodi:namedview
     pagecolor="#ffffff"
     bordercolor="#666666"
     borderopacity="1"
     objecttolerance="10"
     gridtolerance="10"
     guidetolerance="10"
     inkscape:pageopacity="0"
     inkscape:pageshadow="2"
     inkscape:window-width="1920"
     inkscape:window-height="1016"
     id="namedview14"
     showgrid="false"
     showguides="true"
     inkscape:guide-bbox="true"
     fit-margin-top="0"
     fit-margin-left="0"
     fit-margin-right="0"
     fit-margin-bottom="0"
     inkscape:zoom="33.269886"
     inkscape:cx="13.730239"
     inkscape:cy="2.003501"
     inkscape:window-x="0"
     inkscape:window-y="0"
     inkscape:window-maximized="1"
     inkscape:current-layer="svg12" />
  <path
     d="m 15.859239,0.38650081 -4.61,14.03300019 a 0.3,0.3 0 0 1 -0.487,0.113 l -3.5999996,-3.309 a 0.651,0.651 0 0 0 -0.531,-0.157 l -3.093,0.6 a 0.118,0.118 0 0 1 -0.111,-0.2 L 13.501239,2.2135008 c 0.05,-0.049 -0.018,-0.123 -0.077,-0.084 l -9.2999996,5.993 a 0.311,0.311 0 0 1 -0.374,-0.029 l -3.66400004,-3.365 a 0.26,0.26 0 0 1 0.121,-0.448 L 15.453239,0.01750081 a 0.312,0.312 0 0 1 0.406,0.369 z"
     fill="#00a3c9"
     id="path10"
     style="fill:#9da0a7;fill-opacity:1" />
</svg>
