<svg xmlns="http://www.w3.org/2000/svg" width="191.757" height="138.333" viewBox="0 0 191.757 138.333">
  <g id="Grupo_2116" data-name="Grupo 2116" transform="translate(1222.116 -367.918)">
    <g id="Grupo_713" data-name="Grupo 713" transform="translate(-1222.116 401.856)">
      <path id="Trazado_1514" data-name="Trazado 1514" d="M526.287,372.869l-124.374-.921a5.788,5.788,0,0,1-5.628-4.639L381.31,293.334a5.787,5.787,0,0,1,5.714-6.935l124.376.921a5.786,5.786,0,0,1,5.626,4.639L532,365.934A5.787,5.787,0,0,1,526.287,372.869Z" transform="translate(-381.193 -286.399)" fill="#f3faff"/>
      <rect id="Rect치ngulo_388" data-name="Rect치ngulo 388" width="117.629" height="7.429" transform="translate(16.764 85.611) rotate(0.424)" fill="#4d4d4d"/>
      <rect id="Rect치ngulo_389" data-name="Rect치ngulo 389" width="61.291" height="7.429" transform="translate(130.467 86.481) rotate(0.424)" fill="#4d4d4d"/>
      <path id="Trazado_1516" data-name="Trazado 1516" d="M477.187,289.253q-31.336-.6-62.665.157a.478.478,0,0,0,.038.955q31.333-.756,62.667-.158C477.842,290.219,477.8,289.264,477.187,289.253Z" transform="translate(-403.746 -284.042)" fill="#77a0d4"/>
      <path id="Trazado_1663" data-name="Trazado 1663" d="M450.4,290.1c-.109-.6-1.018-.306-.909.292q6.83,37.784,13.209,75.649c.1.6,1.056.567.953-.038Q457.255,328.014,450.4,290.1Z" transform="translate(-439.215 -284.31)" fill="#77a0d4"/>
      <path id="Trazado_1519" data-name="Trazado 1519" d="M514.138,334.6l-53.882-.424c-.615-.006-.575.949.04.953q26.941.212,53.882.426C514.793,335.556,514.751,334.6,514.138,334.6Z" transform="translate(-434.717 -244.892)" fill="#77a0d4"/>
      <path id="Trazado_1664" data-name="Trazado 1664" d="M514.138,334.6l-53.882-.424c-.615-.006-.575.949.04.953q26.941.212,53.882.426C514.793,335.556,514.751,334.6,514.138,334.6Z" transform="translate(-369.98 -252.739)" fill="#77a0d4"/>
      <path id="Trazado_1665" data-name="Trazado 1665" d="M54.323.424.442,0c-.615-.006-.575.949.04.953q26.941.212,53.882.426C54.979,1.383,54.936.43,54.323.424Z" transform="translate(135.246 28.61) rotate(79)" fill="#77a0d4"/>
      <g id="Grupo_1866" data-name="Grupo 1866" transform="translate(47.107 0.303)">
        <g id="Grupo_1865" data-name="Grupo 1865" transform="translate(1.039 25.505)">
          <path id="Trazado_1670" data-name="Trazado 1670" d="M439.678,321.254l-50.133-.371a2.333,2.333,0,0,1-2.269-1.87l-6.036-29.819a2.333,2.333,0,0,1,2.3-2.8l50.134.371a2.332,2.332,0,0,1,2.268,1.87l6.036,29.819A2.333,2.333,0,0,1,439.678,321.254Z" transform="translate(-381.193 -286.399)" fill="#77a0d4"/>
        </g>
        <path id="Trazado_1671" data-name="Trazado 1671" d="M33.575,28.593,2.269,32.22A2.333,2.333,0,0,1,0,30.35C22.029,13.934,33.154,6.4,44.343,0a2.332,2.332,0,0,1,2.268,1.87L36.938,26.238A3,3,0,0,1,33.575,28.593Z" transform="matrix(0.819, 0.574, -0.574, 0.819, 18.48, 0)" fill="#201728"/>
      </g>
    </g>
    <g id="Grupo_2106" data-name="Grupo 2106" transform="matrix(1, 0.017, -0.017, 1, -1157.552, 392.099)">
      <g id="Grupo_2117" data-name="Grupo 2117" transform="translate(-1 0.017)">
        <path id="search-light" d="M111.438,105.543l-28.27-28.27a2.6,2.6,0,0,0-1.863-.767H79.047a45.125,45.125,0,1,0-2.542,2.564V81.3a2.7,2.7,0,0,0,.767,1.863l28.27,28.27a2.632,2.632,0,0,0,3.726,0l2.17-2.17A2.632,2.632,0,0,0,111.438,105.543ZM45.583,84.154a38.57,38.57,0,1,1,38.57-38.57A38.543,38.543,0,0,1,45.583,84.154Z" transform="translate(0)" fill="#172328"/>
        <circle id="Elipse_222" data-name="Elipse 222" cx="38.766" cy="38.766" r="38.766" transform="translate(6.719 6.719)" fill="#f3faff" opacity="0.903"/>
      </g>
    </g>
    <path id="eye-regular" d="M21,69.833a8.089,8.089,0,0,0-2.278.365,4.04,4.04,0,0,1,.528,1.969,4.083,4.083,0,0,1-4.083,4.083,4.039,4.039,0,0,1-1.969-.528A8.146,8.146,0,1,0,21,69.833Zm20.746,7.1A23.387,23.387,0,0,0,21,64,23.391,23.391,0,0,0,.254,76.936a2.359,2.359,0,0,0,0,2.128A23.387,23.387,0,0,0,21,92,23.391,23.391,0,0,0,41.747,79.064a2.359,2.359,0,0,0,0-2.128ZM21,88.5A19.836,19.836,0,0,1,3.651,78,19.835,19.835,0,0,1,21,67.5,19.835,19.835,0,0,1,38.35,78,19.834,19.834,0,0,1,21,88.5Z" transform="translate(-1135.117 360.056)" fill="#77a0d4"/>
    <g id="Grupo_2119" data-name="Grupo 2119" transform="translate(-1103.642 344.877) rotate(41)">
      <path id="Trazado_1121" data-name="Trazado 1121" d="M8.539,9.076,0,0" transform="translate(17.516 17.615)" fill="none" stroke="#00819f" stroke-linecap="round" stroke-width="1.75"/>
      <path id="Trazado_1122" data-name="Trazado 1122" d="M0,12.946V0" transform="translate(46.114 0.166) rotate(-13)" fill="none" stroke="#00819f" stroke-linecap="round" stroke-width="1.75"/>
      <path id="Trazado_1123" data-name="Trazado 1123" d="M0,8.655,8.655,0" transform="translate(70.784 8.55) rotate(-11)" fill="none" stroke="#00819f" stroke-linecap="round" stroke-width="1.75"/>
      <path id="Trazado_1124" data-name="Trazado 1124" d="M0,0H12.9" transform="translate(90.807 35.132) rotate(-34)" fill="none" stroke="#00819f" stroke-linecap="round" stroke-width="1.75"/>
    </g>
  </g>
</svg>
