<svg xmlns="http://www.w3.org/2000/svg" width="520.342" height="203.237" viewBox="0 0 520.342 203.237">
  <g id="Grupo_2132" data-name="Grupo 2132" transform="translate(-610.708 -286.251)">
    <path id="Trazado_1023" data-name="Trazado 1023" d="M2.266,266.416C1.609,264.11.8,226.518.362,223.87c-2.333-14.125,7.355-32,7.524-33.469.743-6.465,9.038-22.126,34.113-32.319,12.871-5.232,63.4-4.249,84-25.2,11.317-11.5,11.568-27.665,8.4-41.284" transform="matrix(-0.259, -0.966, 0.966, -0.259, 871.538, 488.73)" fill="none" stroke="#00a3c9" stroke-linecap="round" stroke-linejoin="round" stroke-width="3" stroke-dasharray="4 17.095" opacity="0.2"/>
    <path id="Trazado_1676" data-name="Trazado 1676" d="M.362,223.87c-2.333-14.125,7.355-32,7.524-33.469.743-6.465,9.038-22.126,34.113-32.319,12.871-5.232,63.4-4.249,84-25.2,12.879-13.093,8.981-37.531,2.736-55.692-.536-1.559-1.092-3.072-1.771-4.819" transform="matrix(0.259, 0.966, -0.966, 0.259, 828.999, 299.687)" fill="none" stroke="#00a3c9" stroke-linecap="round" stroke-linejoin="round" stroke-width="3" stroke-dasharray="4 17.095" opacity="0.2"/>
    <g id="Grupo_2128" data-name="Grupo 2128">
      <g id="Grupo_2110" data-name="Grupo 2110" transform="translate(1997.78 -59.616)">
        <g id="Grupo_713" data-name="Grupo 713" transform="translate(-1222.116 412)">
          <path id="Trazado_1514" data-name="Trazado 1514" d="M527.085,373.345l-125.057-.926a5.82,5.82,0,0,1-5.659-4.665L381.31,293.372a5.819,5.819,0,0,1,5.746-6.973l125.059.926a5.818,5.818,0,0,1,5.657,4.665l15.058,74.382A5.818,5.818,0,0,1,527.085,373.345Z" transform="translate(-381.193 -286.399)" fill="#f3faff"/>
          <rect id="Rect치ngulo_388" data-name="Rect치ngulo 388" width="118.276" height="7.47" transform="translate(16.857 86.081) rotate(0.424)" fill="#4d4d4d"/>
          <rect id="Rect치ngulo_389" data-name="Rect치ngulo 389" width="61.628" height="7.47" transform="translate(131.184 86.957) rotate(0.424)" fill="#4d4d4d"/>
          <path id="Trazado_1516" data-name="Trazado 1516" d="M477.534,289.254q-31.508-.6-63.01.157a.481.481,0,0,0,.038.96q31.5-.76,63.012-.159C478.192,290.226,478.15,289.266,477.534,289.254Z" transform="translate(-403.689 -284.015)" fill="#77a0d4"/>
          <path id="Trazado_1663" data-name="Trazado 1663" d="M450.4,290.1c-.109-.6-1.024-.307-.914.294q6.867,37.992,13.281,76.064c.1.6,1.062.57.958-.038Q457.3,328.224,450.4,290.1Z" transform="translate(-439.159 -284.28)" fill="#77a0d4"/>
          <path id="Trazado_1519" data-name="Trazado 1519" d="M514.437,334.6l-54.178-.426c-.618-.006-.578.954.04.958q27.089.213,54.178.428C515.1,335.563,515.053,334.605,514.437,334.6Z" transform="translate(-434.579 -244.401)" fill="#77a0d4"/>
          <path id="Trazado_1664" data-name="Trazado 1664" d="M514.437,334.6l-54.178-.426c-.618-.006-.578.954.04.958q27.089.213,54.178.428C515.1,335.563,515.053,334.605,514.437,334.6Z" transform="translate(-369.486 -252.291)" fill="#77a0d4"/>
          <path id="Trazado_1665" data-name="Trazado 1665" d="M54.622.426.444,0c-.618-.006-.578.954.04.958q27.089.213,54.178.428C55.281,1.39,55.238.432,54.622.426Z" transform="translate(135.989 28.767) rotate(79)" fill="#77a0d4"/>
          <g id="Grupo_1866" data-name="Grupo 1866" transform="translate(25.462 0.304)">
            <g id="Grupo_1865" data-name="Grupo 1865" transform="translate(0 25.645)">
              <path id="Trazado_1670" data-name="Trazado 1670" d="M440,321.446l-50.409-.373a2.346,2.346,0,0,1-2.281-1.88l-6.07-29.983a2.346,2.346,0,0,1,2.316-2.811l50.41.373a2.345,2.345,0,0,1,2.28,1.88l6.07,29.982A2.345,2.345,0,0,1,440,321.446Z" transform="translate(-358.244 -286.399)" fill="#77a0d4"/>
            </g>
            <path id="Trazado_1671" data-name="Trazado 1671" d="M33.76,28.75,2.281,32.4A2.346,2.346,0,0,1,0,30.516C22.15,14.01,33.336,6.438,44.587,0a2.345,2.345,0,0,1,2.28,1.88l-9.726,24.5A3.018,3.018,0,0,1,33.76,28.75Z" transform="matrix(0.819, 0.574, -0.574, 0.819, 40.486, 0)" fill="#172328"/>
          </g>
        </g>
      </g>
      <g id="Grupo_2115" data-name="Grupo 2115" transform="translate(793.504 11.654)">
        <g id="Grupo_799" data-name="Grupo 799" transform="translate(84 320)">
          <g id="Grupo_608" data-name="Grupo 608" transform="translate(0 0)">
            <circle id="Elipse_154" data-name="Elipse 154" cx="20.595" cy="20.595" r="20.595" transform="translate(1.673 1.593)" fill="#e6e7e9"/>
            <path id="Trazado_1385" data-name="Trazado 1385" d="M-1206,71.917V93l8.557,8.557" transform="translate(1227.008 -67.031)" fill="none" stroke="#b9aede" stroke-width="1.5"/>
            <path id="Trazado_1386" data-name="Trazado 1386" d="M-1206.227,64.1c-3.446.312-22.46,1.151-22.763,23.641a27.117,27.117,0,0,0,6.155,14.63c4.759,5.475,13.619,6.374,16.608,6.535" transform="translate(1228.99 -64.105)" fill="none" stroke="#172328" stroke-width="1"/>
          </g>
        </g>
      </g>
    </g>
  </g>
</svg>
