<svg xmlns="http://www.w3.org/2000/svg" xmlns:xlink="http://www.w3.org/1999/xlink" width="164.969" height="143.419" viewBox="0 0 164.969 143.419">
  <defs>
    <clipPath id="clip-path">
      <circle id="Elipse_195" data-name="Elipse 195" cx="70.518" cy="70.518" r="70.518" fill="none"/>
    </clipPath>
  </defs>
  <g id="Grupo_2122" data-name="Grupo 2122" transform="translate(-913.763 -319.581)">
    <g id="Grupo_2121" data-name="Grupo 2121" transform="matrix(0.985, -0.174, 0.174, 0.985, 941.672, 328.573)">
      <path id="Trazado_1121" data-name="Trazado 1121" d="M8.539,9.076,0,0" transform="translate(17.516 17.615)" fill="none" stroke="#201728" stroke-linecap="round" stroke-width="1.75"/>
      <path id="Trazado_1122" data-name="Trazado 1122" d="M0,12.946V0" transform="translate(46.114 0.166) rotate(-13)" fill="none" stroke="#201728" stroke-linecap="round" stroke-width="1.75"/>
      <path id="Trazado_1123" data-name="Trazado 1123" d="M0,8.655,8.655,0" transform="translate(70.784 8.55) rotate(-11)" fill="none" stroke="#201728" stroke-linecap="round" stroke-width="1.75"/>
    </g>
    <g id="Grupo_2124" data-name="Grupo 2124" transform="translate(20.455 -2.287)">
      <g id="Grupo_2123" data-name="Grupo 2123" transform="translate(892.771 354.103)">
        <g id="Grupo_1865" data-name="Grupo 1865" transform="translate(1.216 29.852)">
          <path id="Trazado_1670" data-name="Trazado 1670" d="M449.646,327.194l-58.677-.434a2.731,2.731,0,0,1-2.655-2.189l-7.065-34.9a2.73,2.73,0,0,1,2.7-3.272l58.678.434a2.73,2.73,0,0,1,2.654,2.189l7.065,34.9A2.73,2.73,0,0,1,449.646,327.194Z" transform="translate(-381.193 -286.399)" fill="#f2bc07"/>
        </g>
        <path id="Trazado_1828" data-name="Trazado 1828" d="M1.838,29.136c2.513-.473,55.938-.621,62.336,0,1.98,1.95,0,4.377,0,4.377s-25.69,17.8-26.792,17.75S4.112,33.7,2.532,32.55-.675,29.608,1.838,29.136Z" fill="#172328"/>
      </g>
    </g>
    <g id="Grupo_2125" data-name="Grupo 2125" transform="translate(587.775 126.3)">
      <g id="Grupo_1941" data-name="Grupo 1941" transform="translate(349.92 195.663)" clip-path="url(#clip-path)">
        <g id="Grupo_1940" data-name="Grupo 1940" transform="translate(2.586 15.733)">
          <path id="Trazado_1729" data-name="Trazado 1729" d="M397.851,338.416v70.9L498.285,434V355.038a60.819,60.819,0,0,0-46.3-59.06h0a43.7,43.7,0,0,0-54.132,42.439Z" transform="translate(-373.262 -228.734)" fill="#b9aede"/>
          <path id="Trazado_1733" data-name="Trazado 1733" d="M495.6,314.307s118.77,115.475-9.15,188.309l-13.68-21.422,27.757-71.815-26.693-37.131" transform="translate(-390.863 -233.342)" fill="none" stroke="#000" stroke-miterlimit="10" stroke-width="1.5"/>
          <line id="Línea_277" data-name="Línea 277" x1="26.577" y1="41.62" transform="translate(69.013 227.654)" fill="none" stroke="#000" stroke-miterlimit="10" stroke-width="1.5"/>
          <path id="Trazado_1734" data-name="Trazado 1734" d="M398.09,319.257s-58.29,90.4-18.452,158.983" transform="translate(-365.711 -234.505)" fill="none" stroke="#000" stroke-miterlimit="10" stroke-width="1.5"/>
          <g id="Grupo_1959" data-name="Grupo 1959" transform="translate(41.669 0)">
            <g id="Grupo_1962" data-name="Grupo 1962" transform="translate(5.319 13.619)">
              <path id="Trazado_1818" data-name="Trazado 1818" d="M190.284,36.671v12.1a20.325,20.325,0,0,0,15.474,19.738l19.256,4.733V25.931L209,22a15.112,15.112,0,0,0-18.718,14.675Z" transform="translate(-190.284 -21.552)" fill="#edeeef"/>
              <path id="Trazado_1819" data-name="Trazado 1819" d="M190.284,63.126a20.325,20.325,0,0,0,15.474,19.738L225.013,87.6" transform="translate(-190.284 -35.907)" fill="none" stroke="#000" stroke-linecap="round" stroke-linejoin="round" stroke-width="1.5"/>
              <circle id="Elipse_215" data-name="Elipse 215" cx="0.929" cy="0.929" r="0.929" transform="translate(18.69 22.961)"/>
              <circle id="Elipse_216" data-name="Elipse 216" cx="0.929" cy="0.929" r="0.929" transform="translate(4.427 22.961)"/>
              <path id="Trazado_1820" data-name="Trazado 1820" d="M201.074,58.955V44.644h-7.169" transform="translate(-191.534 -29.525)" fill="none" stroke="#000" stroke-linecap="round" stroke-linejoin="round" stroke-width="1.5"/>
              <line id="Línea_281" data-name="Línea 281" x1="7.169" transform="translate(14.198 15.119)" fill="none" stroke="#000" stroke-linecap="round" stroke-linejoin="round" stroke-width="1.5"/>
              <g id="Grupo_1961" data-name="Grupo 1961" transform="translate(32.442 20.017)">
                <path id="Trazado_1821" data-name="Trazado 1821" d="M239.835,54.56v4.969a4.854,4.854,0,0,0,4.854-4.854c0-.149-.007-.3-.02-.441C244.4,51.22,239.835,51.533,239.835,54.56Z" transform="translate(-239.835 -52.125)" fill="#edeeef"/>
                <path id="Trazado_1822" data-name="Trazado 1822" d="M239.835,60.874a4.854,4.854,0,0,0,4.854-4.854" transform="translate(-239.835 -53.47)" fill="none" stroke="#000" stroke-linecap="round" stroke-linejoin="round" stroke-width="1.5"/>
              </g>
              <path id="Trazado_1823" data-name="Trazado 1823" d="M210.842,70a3.213,3.213,0,0,1,4.545,0" transform="translate(-197.382 -35.001)" fill="none" stroke="#172328" stroke-linecap="round" stroke-linejoin="round" stroke-width="1.5"/>
              <line id="Línea_282" data-name="Línea 282" x2="3.136" y2="0.771" transform="translate(9.54 29.441)" fill="none" stroke="#000" stroke-linecap="round" stroke-linejoin="round" stroke-width="1.5"/>
            </g>
            <path id="Trazado_1824" data-name="Trazado 1824" d="M189.16,38.616s8.839,5.674,25.753-6.328c0,0-.437,13.031,6.765,15.245" transform="translate(-184.577 -11.64)" fill="none" stroke="#000" stroke-linecap="round" stroke-linejoin="round" stroke-width="1.5"/>
            <path id="Trazado_1825" data-name="Trazado 1825" d="M187.479,35.376a10.585,10.585,0,0,1-5.319-8.73S197.328,1.221,217.733,14.97c0,0,11.566,2.837,12.44,16.913s-7.965,21.5-7.965,21.5" transform="translate(-182.16 -4.252)" fill="none" stroke="#000" stroke-linecap="round" stroke-linejoin="round" stroke-width="1.5"/>
            <path id="Trazado_1826" data-name="Trazado 1826" d="M244.994,15.954a12.552,12.552,0,0,1,6.935,6.766" transform="translate(-203.856 -6)" fill="none" stroke="#e6e7e9" stroke-linecap="round" stroke-linejoin="round" stroke-width="1.5"/>
            <path id="Trazado_1827" data-name="Trazado 1827" d="M250.29,8.74s5.48-12.658,16.938-6.11,10.039,25.1,10.039,25.1l-16.8,3.82s-.1-19.217-5.783-17.177" transform="translate(-205.684 -0.75)" fill="none" stroke="#000" stroke-linecap="round" stroke-linejoin="round" stroke-width="1.5"/>
          </g>
        </g>
      </g>
    </g>
  </g>
</svg>
